<svg xmlns="http://www.w3.org/2000/svg" viewBox="0 0 60 52"><path d="M40 51c0 .6-.4 1-1 1h-2c-.6 0-1-.4-1-1s.4-1 1-1h2c.6 0 1 .4 1 1m20 0c0 .6-.4 1-1 1H43c-.6 0-1-.4-1-1s.4-1 1-1h16c.6 0 1 .4 1 1m-28 0c0 .6-.4 1-1 1H21c-.6 0-1-.4-1-1s.4-1 1-1h10c.6 0 1 .4 1 1m-16 0c0 .6-.4 1-1 1H1c-.6 0-1-.4-1-1s.4-1 1-1h14c.6 0 1 .4 1 1M2 31c0-.6.4-1 1-1h2.8l-.4-2.9c-.1-.5.3-1.1.8-1.1.6-.1 1.1.3 1.1.8l.6 3.2H15c.6 0 1 .4 1 1s-.4 1-1 1H3c-.6 0-1-.4-1-1m1-9h1.6l-.4-2.9c-.1-.5.2-1 .8-1.1.5-.1 1.1.3 1.1.8l.5 3.2H15c.6 0 1 .4 1 1s-.4 1-1 1H3c-.6 0-1-.4-1-1s.4-1 1-1m12 20c-.6 0-1-.4-1-1s.4-1 1-1 1 .4 1 1-.4 1-1 1m0-4c-1.7 0-3 1.3-3 3s1.3 3 3 3 3-1.3 3-3-1.3-3-3-3m34 4c-.6 0-1-.4-1-1s.4-1 1-1 1 .4 1 1-.4 1-1 1m0-4c-1.7 0-3 1.3-3 3s1.3 3 3 3 3-1.3 3-3-1.3-3-3-3m0 8c-2.8 0-5-2.2-5-5s2.2-5 5-5 5 2.2 5 5-2.2 5-5 5m9.7-20.7L56 22.6 55 11c0-2.8-2.2-5-5-5h-7c-.6 0-1 .4-1 1s.4 1 1 1h7c1.6 0 3 1.4 3 3.1l.9 10.9h-3.3l1.3-2.6c.2-.5 0-1.1-.4-1.3-.5-.2-1.1 0-1.3.4L48.4 22H43c-.6 0-1 .4-1 1s.4 1 1 1h11.6l2.7 2.7c.6.6.7 1.9.7 2.3v11h-2.1c-.5-3.4-3.4-6-6.9-6-3.9 0-7 3.1-7 7s3.1 7 7 7c3.5 0 6.4-2.6 6.9-6H59c.6 0 1-.4 1-1V29c0-.2 0-2.5-1.3-3.7M15 46c-2.8 0-5-2.2-5-5s2.2-5 5-5 5 2.2 5 5-2.2 5-5 5M39 0H7C4.2 0 2 2.2 2 5v.1L3.3 14H1c-.6 0-1 .4-1 1s.4 1 1 1h14c.6 0 1-.4 1-1s-.4-1-1-1H5.4L4 4.9C4 3.3 5.4 2 7 2h31v38H21.9c-.5-3.4-3.4-6-6.9-6-3.9 0-7 3.1-7 7s3.1 7 7 7c3.5 0 6.4-2.6 6.9-6H39c.6 0 1-.4 1-1V1c0-.6-.4-1-1-1" fill="#28abee"/></svg>