<?xml version="1.0" encoding="UTF-8"?>
<svg width="35px" height="35px" viewBox="0 0 35 35" version="1.1" xmlns="http://www.w3.org/2000/svg" xmlns:xlink="http://www.w3.org/1999/xlink">
    <title>B9FABF30-6B4C-4506-A416-372976C81465</title>
    <g id="Page-1" stroke="none" stroke-width="1" fill="none" fill-rule="evenodd">
        <g id="tiktok" transform="translate(-504.000000, -337.000000)" fill="#FFFFFF" fill-rule="nonzero">
            <g transform="translate(504.000000, 337.000000)" id="Path">
                <path d="M24.9914082,12.5069541 C23.950482,12.5069541 22.9900655,12.1661157 22.2188112,11.5911269 C21.3342733,10.9319849 20.6987454,9.9651024 20.4743158,8.85068758 C20.4187427,8.57534086 20.3888187,8.29119149 20.3859688,8 L17.4124538,8 L17.4124538,16.0308288 L17.4088915,20.4296864 C17.4088915,21.6057198 16.6340748,22.6028834 15.5600185,22.9535807 C15.2483106,23.0553393 14.9116661,23.1035778 14.5611283,23.0845641 C14.1136939,23.0602688 13.6944023,22.9268207 13.3299713,22.7113319 C12.5544421,22.2528902 12.0286354,21.4212163 12.0143859,20.4698265 C11.991943,18.9828837 13.208138,17.7705835 14.7114606,17.7705835 C15.0082065,17.7705835 15.2931965,17.8184699 15.5600185,17.90544 L15.5600185,15.7104126 L15.5600185,14.9213435 C15.2785908,14.8801471 14.9921758,14.8586686 14.7025546,14.8586686 C13.0570933,14.8586686 11.518147,15.5347118 10.4180854,16.7526457 C9.58662689,17.6730502 9.08789429,18.847323 9.01094697,20.078637 C8.91013174,21.696211 9.5089671,23.2338569 10.6703016,24.3683418 C10.8409394,24.5348878 11.0201269,24.6894623 11.2075078,24.8320651 C12.2031918,25.5894447 13.4204556,26 14.7025546,26 C14.9921758,26 15.2785908,25.9788737 15.5600185,25.9376773 C16.7576892,25.7623286 17.8627381,25.2204378 18.7348077,24.3683418 C19.8063703,23.3215313 20.3984372,21.9317697 20.4048494,20.4525733 L20.3895312,13.8836877 C20.9007321,14.2734688 21.4596689,14.5959977 22.059573,14.8463449 C22.9925592,15.2354218 23.9818309,15.4326011 25,15.432249 L25,13.2981358 L25,12.5062499 C25.0006703,12.5069541 24.9921206,12.5069541 24.9914082,12.5069541 L24.9914082,12.5069541 Z"></path>
            </g>
        </g>
    </g>
</svg>